#define statusbar_width 256
#define statusbar_height 32
static unsigned char statusbar_bits[] = {
   0x00, 0x00, 0x00, 0x00, 0x00, 0x00, 0x00, 0x00, 0x00, 0x00, 0x00, 0x00,
   0x00, 0x00, 0x00, 0x00, 0x00, 0x00, 0x00, 0x00, 0x00, 0x00, 0x00, 0x00,
   0x00, 0x00, 0x00, 0x00, 0x00, 0x00, 0x00, 0x00, 0x00, 0x00, 0x00, 0x00,
   0x00, 0x00, 0x00, 0x00, 0x00, 0x00, 0x00, 0x00, 0x00, 0x00, 0x00, 0x00,
   0x00, 0x00, 0x00, 0x00, 0x00, 0x00, 0x00, 0x00, 0x00, 0x00, 0x00, 0x00,
   0x00, 0x00, 0x00, 0x00, 0x00, 0x00, 0x00, 0x00, 0x00, 0x00, 0x00, 0x00,
   0x00, 0x00, 0x00, 0x00, 0x00, 0x00, 0x00, 0x00, 0x00, 0x00, 0x00, 0x00,
   0x00, 0x00, 0x00, 0x00, 0x00, 0x00, 0x00, 0x00, 0x00, 0x00, 0x00, 0x00,
   0x00, 0x00, 0x00, 0x00, 0x00, 0x00, 0x00, 0x00, 0x00, 0x00, 0x00, 0x00,
   0x00, 0x00, 0x00, 0x00, 0x00, 0x00, 0x00, 0x00, 0x00, 0x00, 0x00, 0x00,
   0x00, 0x00, 0x00, 0x00, 0x00, 0x00, 0x00, 0x00, 0x00, 0x01, 0x09, 0x49,
   0x78, 0x00, 0x60, 0x00, 0x00, 0x03, 0x33, 0x78, 0xc0, 0x78, 0x78, 0x60,
   0xfc, 0x78, 0xfc, 0x78, 0x78, 0x00, 0x00, 0x00, 0x00, 0x00, 0x00, 0x00,
   0x00, 0x00, 0xf8, 0xff, 0x00, 0x01, 0x09, 0x49, 0xcc, 0x00, 0x30, 0x00,
   0x00, 0x03, 0x33, 0xcc, 0xe0, 0xcc, 0xcc, 0x30, 0x0c, 0xcc, 0xc0, 0xcc,
   0xcc, 0x18, 0x00, 0x66, 0x66, 0x00, 0x00, 0x00, 0x00, 0x00, 0xf8, 0xff,
   0x00, 0x01, 0x09, 0x49, 0xc0, 0x22, 0x18, 0x22, 0x00, 0x03, 0x33, 0xcc,
   0xc0, 0xc0, 0xc0, 0x18, 0x0c, 0x0c, 0xc0, 0xcc, 0xcc, 0x18, 0x00, 0x66,
   0x66, 0x00, 0x00, 0x00, 0x00, 0x00, 0x18, 0xc0, 0x00, 0x01, 0x09, 0x49,
   0x60, 0x14, 0x0c, 0x14, 0x33, 0x33, 0x33, 0xcc, 0xc0, 0x60, 0x70, 0x0c,
   0x7c, 0x7c, 0x60, 0x78, 0xcc, 0x18, 0x00, 0x3c, 0x3c, 0x00, 0x00, 0x00,
   0x00, 0x00, 0x18, 0xd8, 0x00, 0x01, 0x09, 0x49, 0x30, 0x08, 0x4c, 0x08,
   0x33, 0x33, 0x33, 0xcc, 0xc0, 0x30, 0xc0, 0x4c, 0xc0, 0xcc, 0x60, 0xcc,
   0xf8, 0x7e, 0x7e, 0x18, 0x18, 0x00, 0x00, 0x00, 0x00, 0x00, 0x1e, 0xd8,
   0x00, 0x01, 0x09, 0x49, 0x18, 0x14, 0xfc, 0x14, 0x00, 0x03, 0x33, 0xcc,
   0xc0, 0x18, 0xc0, 0xfc, 0xc0, 0xcc, 0x30, 0xcc, 0xc0, 0x18, 0x00, 0x3c,
   0x18, 0x00, 0x00, 0x00, 0x00, 0x00, 0x1e, 0xd8, 0x00, 0x01, 0x09, 0x49,
   0x0c, 0x22, 0x60, 0x22, 0x00, 0x03, 0x33, 0xcc, 0xc0, 0x0c, 0xcc, 0x60,
   0xcc, 0xcc, 0x30, 0xcc, 0xcc, 0x18, 0x00, 0x66, 0x18, 0x00, 0x00, 0x00,
   0x00, 0x00, 0x1e, 0xd8, 0x00, 0x01, 0x09, 0x49, 0xfc, 0x00, 0x60, 0x00,
   0x00, 0x03, 0x33, 0x78, 0xc0, 0xfc, 0x78, 0x60, 0x78, 0x78, 0x30, 0x78,
   0x78, 0x18, 0x00, 0x66, 0x18, 0x00, 0x00, 0x00, 0x00, 0x00, 0x1e, 0xd8,
   0x00, 0x00, 0x00, 0x00, 0x00, 0x00, 0x00, 0x00, 0x00, 0x00, 0x00, 0x00,
   0x00, 0x00, 0x00, 0x00, 0x00, 0x00, 0x00, 0x00, 0x00, 0x00, 0x00, 0x00,
   0x00, 0x00, 0x00, 0x00, 0x00, 0x00, 0x18, 0xd8, 0x00, 0x00, 0x00, 0x00,
   0x00, 0x00, 0x00, 0x00, 0x00, 0x00, 0x00, 0x00, 0x00, 0x00, 0x00, 0x00,
   0x00, 0x00, 0x00, 0x00, 0x00, 0x00, 0x00, 0x00, 0x00, 0x00, 0x00, 0x00,
   0x00, 0x00, 0x18, 0xc0, 0x00, 0x00, 0x00, 0x00, 0x00, 0x00, 0x00, 0x00,
   0x00, 0x00, 0x00, 0x00, 0x00, 0x00, 0x00, 0x00, 0x00, 0x00, 0x00, 0x00,
   0x00, 0x00, 0x00, 0x00, 0x00, 0x00, 0x00, 0x00, 0x00, 0x00, 0xf8, 0xff,
   0x00, 0x00, 0x00, 0x00, 0x00, 0x00, 0x00, 0x00, 0x00, 0x00, 0x00, 0x00,
   0x00, 0x00, 0x00, 0x00, 0x00, 0x00, 0x00, 0x00, 0x00, 0x00, 0x00, 0x00,
   0x00, 0x00, 0x00, 0x00, 0x00, 0x00, 0xf8, 0xff, 0x00, 0x00, 0x00, 0x00,
   0x00, 0x00, 0x00, 0x00, 0x00, 0x00, 0x00, 0x00, 0x00, 0x00, 0x00, 0x00,
   0x00, 0x00, 0x00, 0x00, 0x00, 0x00, 0x00, 0x00, 0x00, 0x00, 0x00, 0x00,
   0x00, 0x00, 0x00, 0x00, 0x00, 0x00, 0x00, 0x00, 0x00, 0x00, 0x00, 0x00,
   0x00, 0x00, 0x00, 0x00, 0x00, 0x00, 0x00, 0x00, 0x00, 0x00, 0x00, 0x00,
   0x00, 0x00, 0x00, 0x00, 0x00, 0x00, 0x00, 0x00, 0x00, 0x00, 0x00, 0x00,
   0x00, 0x00, 0x00, 0x00, 0x00, 0x00, 0x00, 0x00, 0x00, 0x00, 0x00, 0x00,
   0x00, 0x00, 0x00, 0x00, 0x00, 0x00, 0x00, 0x00, 0x00, 0x00, 0x00, 0x00,
   0x00, 0x00, 0x00, 0x00, 0x00, 0x00, 0x00, 0x00, 0x00, 0x00, 0x00, 0x00,
   0x00, 0x00, 0x00, 0x00, 0x00, 0x00, 0x00, 0x00, 0x00, 0x00, 0x00, 0x00,
   0x00, 0x00, 0x00, 0x00, 0x00, 0x00, 0x00, 0x00, 0x00, 0x00, 0x00, 0x00,
   0x00, 0x00, 0x00, 0x00, 0x00, 0x00, 0x00, 0x00, 0x00, 0x00, 0x00, 0x00,
   0x00, 0x00, 0x00, 0x00, 0x00, 0x00, 0x00, 0x00, 0x00, 0x00, 0x00, 0x00,
   0x00, 0x00, 0x00, 0x00, 0x00, 0x00, 0x00, 0x00, 0x00, 0x00, 0x00, 0x00,
   0x00, 0x00, 0x00, 0x00, 0x00, 0x00, 0x00, 0x00, 0x00, 0x00, 0x00, 0x00,
   0x00, 0x00, 0x00, 0x00, 0x00, 0x00, 0x00, 0x00, 0x00, 0x00, 0x00, 0x00,
   0x00, 0x00, 0x00, 0x00, 0x00, 0x00, 0x00, 0x00, 0x00, 0x00, 0x00, 0x00,
   0x00, 0x00, 0x00, 0x00, 0x00, 0x00, 0x00, 0x00, 0x00, 0x00, 0x00, 0x00,
   0x00, 0x00, 0x00, 0x00, 0x00, 0x00, 0x00, 0x00, 0x00, 0x00, 0x00, 0x00,
   0x00, 0x00, 0x00, 0x00, 0x00, 0x00, 0x00, 0x00, 0x00, 0x00, 0x00, 0x00,
   0x00, 0x00, 0x00, 0x00, 0x00, 0x00, 0x00, 0x00, 0x00, 0x00, 0x00, 0x00,
   0x00, 0x00, 0x00, 0x00, 0x00, 0x00, 0x00, 0x00, 0x00, 0x00, 0x00, 0x00,
   0x00, 0x3f, 0xf3, 0x78, 0x00, 0xbf, 0x9f, 0x07, 0x00, 0x00, 0xbf, 0xdf,
   0x0f, 0xf0, 0x63, 0x3c, 0x00, 0x00, 0x00, 0x00, 0x00, 0x00, 0x00, 0x00,
   0x00, 0x00, 0x00, 0x00, 0x00, 0x00, 0x00, 0x00, 0x00, 0x83, 0x9b, 0xcd,
   0x60, 0x83, 0xc1, 0x0c, 0x00, 0x00, 0x03, 0xd8, 0x00, 0x36, 0x30, 0x66,
   0x00, 0x00, 0x00, 0x00, 0x00, 0x00, 0x00, 0x00, 0x00, 0x00, 0x00, 0x00,
   0x00, 0x00, 0x00, 0x00, 0x00, 0x03, 0x9b, 0xcd, 0x30, 0x83, 0x01, 0x06,
   0x00, 0x00, 0x03, 0xcc, 0x00, 0x33, 0x18, 0x66, 0x00, 0x00, 0x00, 0x00,
   0x00, 0x00, 0x00, 0x00, 0x00, 0x00, 0x00, 0x00, 0x00, 0x00, 0x00, 0x00,
   0x00, 0x1f, 0x9b, 0xcd, 0x18, 0x9f, 0x0f, 0x03, 0x00, 0x00, 0x1f, 0xcc,
   0x87, 0xf1, 0x4d, 0x66, 0x00, 0x00, 0x00, 0x00, 0x00, 0x00, 0x00, 0x00,
   0x00, 0x00, 0x00, 0x00, 0x00, 0x00, 0x00, 0x00, 0x00, 0x03, 0x9b, 0xcd,
   0x0c, 0x03, 0x98, 0x01, 0x00, 0x00, 0x03, 0x06, 0xcc, 0x30, 0xfc, 0x66,
   0x00, 0x00, 0x00, 0x00, 0x00, 0x00, 0x00, 0x00, 0x00, 0x00, 0x00, 0x00,
   0x00, 0x00, 0x00, 0x00, 0x00, 0x03, 0x9b, 0xcd, 0x06, 0x83, 0xd9, 0x00,
   0x00, 0x00, 0x03, 0xc6, 0x6c, 0x30, 0x60, 0x66, 0x00, 0x00, 0x00, 0x00,
   0x00, 0x00, 0x00, 0x00, 0x00, 0x00, 0x00, 0x00, 0x00, 0x00, 0x00, 0x00,
   0x00, 0x03, 0xf3, 0x78, 0x00, 0x03, 0xcf, 0x0f, 0x00, 0x00, 0x03, 0x86,
   0x07, 0x30, 0x60, 0x3c, 0x00, 0x00, 0x00, 0x00, 0x00, 0x00, 0x00, 0x00,
   0x00, 0x00, 0x00, 0x00, 0x00, 0x00, 0x00, 0x00, 0x00, 0x00, 0x00, 0x00,
   0x00, 0x00, 0x00, 0x00, 0x00, 0x00, 0x00, 0x00, 0x00, 0x00, 0x00, 0x00,
   0x00, 0x00, 0x00, 0x00, 0x00, 0x00, 0x00, 0x00, 0x00, 0x00, 0x00, 0x00,
   0x00, 0x00, 0x00, 0x00 };
