#define statusbar_width 256
#define statusbar_height 32
static unsigned char statusbar_bits[] = {
   0x00, 0x00, 0x00, 0x00, 0x00, 0x00, 0x00, 0x00, 0x00, 0x00, 0x00, 0x00,
   0x00, 0x00, 0x00, 0x00, 0x00, 0x00, 0x00, 0x00, 0x00, 0x00, 0x00, 0x00,
   0x00, 0x00, 0x00, 0x00, 0x00, 0x00, 0x00, 0x00, 0x00, 0x00, 0x00, 0x00,
   0x00, 0x00, 0x00, 0x00, 0x00, 0x00, 0x00, 0x00, 0x00, 0x00, 0x00, 0x00,
   0x00, 0x00, 0x00, 0x00, 0x00, 0x00, 0x00, 0x00, 0x00, 0x00, 0x00, 0x00,
   0x00, 0x00, 0x00, 0x00, 0x00, 0x00, 0x00, 0x00, 0x00, 0x00, 0x00, 0x00,
   0x00, 0x00, 0x00, 0x00, 0x00, 0x00, 0x00, 0x00, 0x00, 0x00, 0x00, 0x00,
   0x00, 0x00, 0x00, 0x00, 0x00, 0x00, 0x00, 0x00, 0x00, 0x00, 0x00, 0x00,
   0x00, 0x00, 0x00, 0x00, 0x00, 0x00, 0x00, 0x00, 0x00, 0x00, 0x00, 0x00,
   0x00, 0x00, 0x00, 0x00, 0x00, 0x00, 0x00, 0x00, 0x00, 0x00, 0x00, 0x00,
   0x00, 0x00, 0x00, 0x00, 0x00, 0x00, 0x00, 0x00, 0x00, 0xfc, 0x00, 0x49,
   0x78, 0x00, 0x60, 0x00, 0x00, 0x03, 0x33, 0x78, 0xc0, 0x78, 0x78, 0x60,
   0xfc, 0x78, 0xfc, 0x78, 0x78, 0x00, 0x00, 0x00, 0x00, 0x00, 0x00, 0x00,
   0x00, 0x00, 0xf8, 0xff, 0x00, 0x0c, 0x00, 0x49, 0xcc, 0x00, 0x30, 0x00,
   0x00, 0x03, 0x33, 0xcc, 0xe0, 0xcc, 0xcc, 0x30, 0x0c, 0xcc, 0xc0, 0xcc,
   0xcc, 0x18, 0x00, 0x66, 0x66, 0x00, 0x00, 0x00, 0x00, 0x00, 0xf8, 0xff,
   0x00, 0x0c, 0xc0, 0x49, 0xc0, 0x22, 0x18, 0x22, 0x00, 0x03, 0x33, 0xcc,
   0xc0, 0xc0, 0xc0, 0x18, 0x0c, 0x0c, 0xc0, 0xcc, 0xcc, 0x18, 0x00, 0x66,
   0x66, 0x00, 0x00, 0x00, 0x00, 0x00, 0x18, 0xc0, 0x00, 0x7c, 0x60, 0x49,
   0x60, 0x14, 0x0c, 0x14, 0x33, 0x33, 0x33, 0xcc, 0xc0, 0x60, 0x70, 0x0c,
   0x7c, 0x7c, 0x60, 0x78, 0xcc, 0x18, 0x00, 0x3c, 0x3c, 0x00, 0x00, 0x00,
   0x00, 0x00, 0x18, 0xd8, 0x00, 0x0c, 0x30, 0x49, 0x30, 0x08, 0x4c, 0x08,
   0x33, 0x33, 0x33, 0xcc, 0xc0, 0x30, 0xc0, 0x4c, 0xc0, 0xcc, 0x60, 0xcc,
   0xf8, 0x7e, 0x7e, 0x18, 0x18, 0x00, 0x00, 0x00, 0x00, 0x00, 0x1e, 0xd8,
   0x00, 0x0c, 0x18, 0x49, 0x18, 0x14, 0xfc, 0x14, 0x00, 0x03, 0x33, 0xcc,
   0xc0, 0x18, 0xc0, 0xfc, 0xc0, 0xcc, 0x30, 0xcc, 0xc0, 0x18, 0x00, 0x3c,
   0x18, 0x00, 0x00, 0x00, 0x00, 0x00, 0x1e, 0xd8, 0x00, 0x0c, 0x0c, 0x49,
   0x0c, 0x22, 0x60, 0x22, 0x00, 0x03, 0x33, 0xcc, 0xc0, 0x0c, 0xcc, 0x60,
   0xcc, 0xcc, 0x30, 0xcc, 0xcc, 0x18, 0x00, 0x66, 0x18, 0x00, 0x00, 0x00,
   0x00, 0x00, 0x1e, 0xd8, 0x00, 0x0c, 0x00, 0x49, 0xfc, 0x00, 0x60, 0x00,
   0x00, 0x03, 0x33, 0x78, 0xc0, 0xfc, 0x78, 0x60, 0x78, 0x78, 0x30, 0x78,
   0x78, 0x18, 0x00, 0x66, 0x18, 0x00, 0x00, 0x00, 0x00, 0x00, 0x1e, 0xd8,
   0x00, 0x00, 0x00, 0x00, 0x00, 0x00, 0x00, 0x00, 0x00, 0x00, 0x00, 0x00,
   0x00, 0x00, 0x00, 0x00, 0x00, 0x00, 0x00, 0x00, 0x00, 0x00, 0x00, 0x00,
   0x00, 0x00, 0x00, 0x00, 0x00, 0x00, 0x18, 0xd8, 0x00, 0x00, 0x00, 0x00,
   0x00, 0x00, 0x00, 0x00, 0x00, 0x00, 0x00, 0x00, 0x00, 0x00, 0x00, 0x00,
   0x00, 0x00, 0x00, 0x00, 0x00, 0x00, 0x00, 0x00, 0x00, 0x00, 0x00, 0x00,
   0x00, 0x00, 0x18, 0xc0, 0x00, 0x00, 0x00, 0x00, 0x00, 0x00, 0x00, 0x00,
   0x00, 0x00, 0x00, 0x00, 0x00, 0x00, 0x00, 0x00, 0x00, 0x00, 0x00, 0x00,
   0x00, 0x00, 0x00, 0x00, 0x00, 0x00, 0x00, 0x00, 0x00, 0x00, 0xf8, 0xff,
   0x00, 0x00, 0x00, 0x00, 0x00, 0x00, 0x00, 0x00, 0x00, 0x00, 0x00, 0x00,
   0x00, 0x00, 0x00, 0x00, 0x00, 0x00, 0x00, 0x00, 0x00, 0x00, 0x00, 0x00,
   0x00, 0x00, 0x00, 0x00, 0x00, 0x00, 0xf8, 0xff, 0x00, 0xff, 0xff, 0x00,
   0x00, 0x00, 0x00, 0x00, 0x00, 0x00, 0x00, 0x00, 0x00, 0x00, 0x00, 0x00,
   0x00, 0x00, 0x00, 0x00, 0x00, 0x00, 0x00, 0x00, 0x00, 0x00, 0x00, 0x00,
   0x00, 0x00, 0x00, 0x00, 0x00, 0x09, 0x90, 0x00, 0x00, 0x00, 0x00, 0x00,
   0x00, 0x00, 0x00, 0x00, 0x00, 0x00, 0x00, 0x00, 0x00, 0x00, 0x00, 0x00,
   0x00, 0x00, 0x00, 0x00, 0x00, 0x00, 0x00, 0x00, 0x00, 0x00, 0x00, 0x00,
   0x00, 0x09, 0x90, 0x00, 0x00, 0x00, 0x00, 0x00, 0x00, 0x00, 0x00, 0x00,
   0x00, 0x00, 0x00, 0x00, 0x00, 0x00, 0x00, 0x00, 0x00, 0x00, 0x00, 0x00,
   0x00, 0x00, 0x00, 0x00, 0x00, 0x00, 0x00, 0x00, 0x00, 0x09, 0x90, 0x00,
   0x00, 0x00, 0x00, 0x00, 0x00, 0x00, 0x00, 0x00, 0x00, 0x00, 0x00, 0x00,
   0x00, 0x00, 0x00, 0x00, 0x00, 0x00, 0x00, 0x00, 0x00, 0x00, 0x00, 0x00,
   0x00, 0x00, 0x00, 0x00, 0x00, 0x09, 0x90, 0x78, 0x3c, 0x63, 0x9b, 0x79,
   0x00, 0x1e, 0xcf, 0xec, 0xe3, 0x99, 0xfd, 0x66, 0x1e, 0x00, 0x00, 0x00,
   0x00, 0x00, 0x00, 0x00, 0x00, 0x00, 0x00, 0x00, 0x00, 0x00, 0x00, 0x00,
   0x00, 0x09, 0x90, 0xcc, 0x66, 0x63, 0xbb, 0xcd, 0x00, 0xb3, 0xd9, 0x6c,
   0x36, 0x9b, 0x0d, 0x66, 0x33, 0x00, 0x00, 0x00, 0x00, 0x00, 0x00, 0x00,
   0x00, 0x00, 0x00, 0x00, 0x00, 0x00, 0x00, 0x00, 0x00, 0x09, 0x90, 0x0c,
   0x66, 0x63, 0xfb, 0x0d, 0x00, 0x83, 0xd9, 0x6c, 0x36, 0x9b, 0x0d, 0x66,
   0x33, 0x00, 0x00, 0x00, 0x00, 0x00, 0x00, 0x00, 0x00, 0x00, 0x00, 0x00,
   0x00, 0x00, 0x00, 0x00, 0x00, 0xf9, 0x9f, 0x78, 0x7e, 0x63, 0xdb, 0x0d,
   0x00, 0x83, 0x99, 0xe7, 0xf3, 0xfb, 0x7d, 0x7e, 0x33, 0x00, 0x00, 0x00,
   0x00, 0x00, 0x00, 0x00, 0x00, 0x00, 0x00, 0x00, 0x00, 0x00, 0x00, 0x00,
   0x00, 0x01, 0x80, 0xc0, 0x66, 0x36, 0x9b, 0xed, 0x00, 0x83, 0xd9, 0x6c,
   0x30, 0x9b, 0x0d, 0x66, 0x33, 0x00, 0x00, 0x00, 0x00, 0x00, 0x00, 0x00,
   0x00, 0x00, 0x00, 0x00, 0x00, 0x00, 0x00, 0x00, 0x00, 0x01, 0x80, 0xcc,
   0x66, 0x1c, 0x9b, 0xcd, 0x00, 0xb3, 0xd9, 0x6c, 0x30, 0x9b, 0x0d, 0x66,
   0x33, 0x00, 0x00, 0x00, 0x00, 0x00, 0x00, 0x00, 0x00, 0x00, 0x00, 0x00,
   0x00, 0x00, 0x00, 0x00, 0x00, 0xf1, 0x8f, 0x78, 0x66, 0x08, 0x9b, 0x79,
   0x00, 0x1e, 0xcf, 0x6c, 0x30, 0x9b, 0xfd, 0x66, 0x1e, 0x00, 0x00, 0x00,
   0x00, 0x00, 0x00, 0x00, 0x00, 0x00, 0x00, 0x00, 0x00, 0x00, 0x00, 0x00,
   0x00, 0x11, 0x8f, 0x00, 0x00, 0x00, 0x00, 0x00, 0x00, 0x00, 0x00, 0x00,
   0x00, 0x00, 0x00, 0x00, 0x00, 0x00, 0x00, 0x00, 0x00, 0x00, 0x00, 0x00,
   0x00, 0x00, 0x00, 0x00, 0x00, 0x00, 0x00, 0x00, 0x00, 0x11, 0x8f, 0x00,
   0x00, 0x00, 0x00, 0x00, 0x00, 0x00, 0x00, 0x00, 0x00, 0x00, 0x00, 0x00,
   0x00, 0x00, 0x00, 0x00, 0x00, 0x00, 0x00, 0x00, 0x00, 0x00, 0x00, 0x00,
   0x00, 0x00, 0x00, 0x00, 0x00, 0x11, 0x8f, 0x00, 0x00, 0x00, 0x00, 0x00,
   0x00, 0x00, 0x00, 0x00, 0x00, 0x00, 0x00, 0x00, 0x00, 0x00, 0x00, 0x00,
   0x00, 0x00, 0x00, 0x00, 0x00, 0x00, 0x00, 0x00, 0x00, 0x00, 0x00, 0x00,
   0x00, 0x12, 0x8f, 0x00, 0x00, 0x00, 0x00, 0x00, 0x00, 0x00, 0x00, 0x00,
   0x00, 0x00, 0x00, 0x00, 0x00, 0x00, 0x00, 0x00, 0x00, 0x00, 0x00, 0x00,
   0x00, 0x00, 0x00, 0x00, 0x00, 0x00, 0x00, 0x00, 0x00, 0xfc, 0xff, 0x00,
   0x00, 0x00, 0x00, 0x00, 0x00, 0x00, 0x00, 0x00, 0x00, 0x00, 0x00, 0x00,
   0x00, 0x00, 0x00, 0x00, 0x00, 0x00, 0x00, 0x00, 0x00, 0x00, 0x00, 0x00,
   0x00, 0x00, 0x00, 0x00 };
